<?xml version="1.0" encoding="UTF-8"?>
<!DOCTYPE svg PUBLIC "-//W3C//DTD SVG 1.1//EN" "http://www.w3.org/Graphics/SVG/1.1/DTD/svg11.dtd">
<svg xmlns="http://www.w3.org/2000/svg" version="1.1" width="200px" height="200px" style="shape-rendering:geometricPrecision; text-rendering:geometricPrecision; image-rendering:optimizeQuality; fill-rule:evenodd; clip-rule:evenodd" xmlns:xlink="http://www.w3.org/1999/xlink">
<g><path style="opacity:0.004" fill="#fefffe" d="M 86.5,0.5 C 87.8333,1.16667 87.8333,1.16667 86.5,0.5 Z"/></g>
<g><path style="opacity:0.004" fill="#fefffe" d="M 173.5,1.5 C 174.833,2.16667 174.833,2.16667 173.5,1.5 Z"/></g>
<g><path style="opacity:0.004" fill="#fefffe" d="M 21.5,3.5 C 22.8333,4.16667 22.8333,4.16667 21.5,3.5 Z"/></g>
<g><path style="opacity:0.004" fill="#fefffe" d="M 177.5,7.5 C 178.833,8.16667 178.833,8.16667 177.5,7.5 Z"/></g>
<g><path style="opacity:0.004" fill="#fefffe" d="M 159.5,8.5 C 160.833,9.16667 160.833,9.16667 159.5,8.5 Z"/></g>
<g><path style="opacity:0.004" fill="#fefffe" d="M 73.5,9.5 C 74.8333,10.1667 74.8333,10.1667 73.5,9.5 Z"/></g>
<g><path style="opacity:0.004" fill="#fefffe" d="M 137.5,9.5 C 138.833,10.1667 138.833,10.1667 137.5,9.5 Z"/></g>
<g><path style="opacity:0.004" fill="#fefffe" d="M 76.5,17.5 C 77.8333,18.1667 77.8333,18.1667 76.5,17.5 Z"/></g>
<g><path style="opacity:0.004" fill="#fefffe" d="M 119.5,18.5 C 120.833,19.1667 120.833,19.1667 119.5,18.5 Z"/></g>
<g><path style="opacity:0.004" fill="#fefffe" d="M 71.5,21.5 C 72.8333,22.1667 72.8333,22.1667 71.5,21.5 Z"/></g>
<g><path style="opacity:0.004" fill="#fefffe" d="M 8.5,24.5 C 9.83333,25.1667 9.83333,25.1667 8.5,24.5 Z"/></g>
<g><path style="opacity:0.004" fill="#fefffe" d="M 176.5,25.5 C 177.833,26.1667 177.833,26.1667 176.5,25.5 Z"/></g>
<g><path style="opacity:0.004" fill="#fefffe" d="M 98.5,27.5 C 99.8333,28.1667 99.8333,28.1667 98.5,27.5 Z"/></g>
<g><path style="opacity:0.004" fill="#fefffe" d="M 174.5,30.5 C 175.833,31.1667 175.833,31.1667 174.5,30.5 Z"/></g>
<g><path style="opacity:0.004" fill="#fefffe" d="M 66.5,31.5 C 67.8333,32.1667 67.8333,32.1667 66.5,31.5 Z"/></g>
<g><path style="opacity:0.004" fill="#fefffe" d="M 150.5,32.5 C 151.833,33.1667 151.833,33.1667 150.5,32.5 Z"/></g>
<g><path style="opacity:0.004" fill="#fefffe" d="M 193.5,35.5 C 194.833,36.1667 194.833,36.1667 193.5,35.5 Z"/></g>
<g><path style="opacity:0.004" fill="#fefffe" d="M 121.5,36.5 C 122.833,37.1667 122.833,37.1667 121.5,36.5 Z"/></g>
<g><path style="opacity:0.004" fill="#fefffe" d="M 79.5,37.5 C 80.8333,38.1667 80.8333,38.1667 79.5,37.5 Z"/></g>
<g><path style="opacity:0.004" fill="#fefffe" d="M 177.5,39.5 C 178.833,40.1667 178.833,40.1667 177.5,39.5 Z"/></g>
<g><path style="opacity:0.004" fill="#fefffe" d="M 20.5,40.5 C 21.8333,41.1667 21.8333,41.1667 20.5,40.5 Z"/></g>
<g><path style="opacity:0.004" fill="#fefffe" d="M 199.5,42.5 C 199.5,42.8333 199.5,43.1667 199.5,43.5C 198.83,43.0187 198.83,42.6853 199.5,42.5 Z"/></g>
<g><path style="opacity:0.004" fill="#fefffe" d="M 53.5,47.5 C 54.8333,48.1667 54.8333,48.1667 53.5,47.5 Z"/></g>
<g><path style="opacity:0.004" fill="#fefffe" d="M 152.5,52.5 C 153.833,53.1667 153.833,53.1667 152.5,52.5 Z"/></g>
<g><path style="opacity:0.004" fill="#fefffe" d="M 140.5,58.5 C 141.833,59.1667 141.833,59.1667 140.5,58.5 Z"/></g>
<g><path style="opacity:0.004" fill="#fefffe" d="M 100.5,66.5 C 101.833,67.1667 101.833,67.1667 100.5,66.5 Z"/></g>
<g><path style="opacity:0.004" fill="#fefffe" d="M 181.5,73.5 C 182.833,74.1667 182.833,74.1667 181.5,73.5 Z"/></g>
<g><path style="opacity:0.906" fill="#0a131f" d="M 59.5,74.5 C 58.1667,74.5 56.8333,74.5 55.5,74.5C 55.6287,76.2161 55.962,77.8828 56.5,79.5C 53.7564,78.9283 52.9231,77.2617 54,74.5C 55.9435,73.193 57.7768,73.193 59.5,74.5 Z"/></g>
<g><path style="opacity:1" fill="#070f20" d="M 59.5,74.5 C 61.0232,77.0449 60.3566,79.0449 57.5,80.5C 56.8933,80.3764 56.56,80.0431 56.5,79.5C 55.962,77.8828 55.6287,76.2161 55.5,74.5C 56.8333,74.5 58.1667,74.5 59.5,74.5 Z"/></g>
<g><path style="opacity:0.004" fill="#fefffe" d="M 181.5,77.5 C 182.833,78.1667 182.833,78.1667 181.5,77.5 Z"/></g>
<g><path style="opacity:0.004" fill="#fefffe" d="M 123.5,78.5 C 124.833,79.1667 124.833,79.1667 123.5,78.5 Z"/></g>
<g><path style="opacity:0.004" fill="#fefffe" d="M 127.5,80.5 C 128.833,81.1667 128.833,81.1667 127.5,80.5 Z"/></g>
<g><path style="opacity:1" fill="#031320" d="M 56.5,81.5 C 56.8039,82.1499 57.1373,82.8165 57.5,83.5C 56.2299,84.2876 55.2299,85.2876 54.5,86.5C 54.1667,86.5 53.8333,86.5 53.5,86.5C 53.1667,86.5 52.8333,86.5 52.5,86.5C 53.2341,85.2921 53.5674,83.9587 53.5,82.5C 54.391,81.8902 55.391,81.5569 56.5,81.5 Z"/></g>
<g><path style="opacity:0.992" fill="#13242a" d="M 53.5,82.5 C 53.5674,83.9587 53.2341,85.2921 52.5,86.5C 50.9582,85.6993 49.2915,85.366 47.5,85.5C 49.1815,83.9925 51.1815,82.9925 53.5,82.5 Z"/></g>
<g><path style="opacity:1" fill="#071021" d="M 56.5,81.5 C 58.2915,81.366 59.9582,81.6993 61.5,82.5C 62.2907,84.6907 62.2907,86.6907 61.5,88.5C 61.3059,86.0882 59.9726,85.0882 57.5,85.5C 56.609,86.1098 55.609,86.4431 54.5,86.5C 55.2299,85.2876 56.2299,84.2876 57.5,83.5C 57.1373,82.8165 56.8039,82.1499 56.5,81.5 Z"/></g>
<g><path style="opacity:0.004" fill="#fefffe" d="M 148.5,84.5 C 149.833,85.1667 149.833,85.1667 148.5,84.5 Z"/></g>
<g><path style="opacity:1" fill="#19bc8e" d="M 31.5,85.5 C 31.5,85.1667 31.5,84.8333 31.5,84.5C 34.5184,84.3354 37.5184,84.502 40.5,85C 39.695,86.1127 39.0283,87.2794 38.5,88.5C 36.302,88.1201 34.6354,88.7868 33.5,90.5C 32.8333,90.8333 32.1667,91.1667 31.5,91.5C 31.5858,90.5041 31.2524,89.6708 30.5,89C 31.448,88.5172 32.448,88.3505 33.5,88.5C 33.7148,86.8212 33.0481,85.8212 31.5,85.5 Z"/></g>
<g><path style="opacity:1" fill="#021226" d="M 57.5,85.5 C 59.9726,85.0882 61.3059,86.0882 61.5,88.5C 60.8333,88.5 60.5,88.8333 60.5,89.5C 58.0882,89.3059 57.0882,87.9726 57.5,85.5 Z"/></g>
<g><path style="opacity:1" fill="#22b78d" d="M 31.5,84.5 C 35.7327,83.2057 40.0661,83.2057 44.5,84.5C 44.5394,85.5832 44.8728,86.5832 45.5,87.5C 43.2573,88.4742 40.924,88.8076 38.5,88.5C 39.0283,87.2794 39.695,86.1127 40.5,85C 37.5184,84.502 34.5184,84.3354 31.5,84.5 Z"/></g>
<g><path style="opacity:1" fill="#2faf8e" d="M 44.5,84.5 C 45.391,85.1098 46.391,85.4431 47.5,85.5C 49.2516,87.2459 50.5849,89.2459 51.5,91.5C 50.1067,90.7402 48.6067,90.0735 47,89.5C 44.4219,89.6824 43.9219,90.6824 45.5,92.5C 45.5,92.8333 45.5,93.1667 45.5,93.5C 42.1099,90.0362 38.1099,89.0362 33.5,90.5C 34.6354,88.7868 36.302,88.1201 38.5,88.5C 40.924,88.8076 43.2573,88.4742 45.5,87.5C 44.8728,86.5832 44.5394,85.5832 44.5,84.5 Z"/></g>
<g><path style="opacity:0.004" fill="#fefffe" d="M 156.5,87.5 C 157.833,88.1667 157.833,88.1667 156.5,87.5 Z"/></g>
<g><path style="opacity:0.004" fill="#fefffe" d="M 199.5,87.5 C 199.5,87.8333 199.5,88.1667 199.5,88.5C 198.83,88.0187 198.83,87.6853 199.5,87.5 Z"/></g>
<g><path style="opacity:0.741" fill="#030a1a" d="M 61.5,82.5 C 64.0652,86.1347 64.0652,89.8014 61.5,93.5C 61.7678,91.901 61.4345,90.5676 60.5,89.5C 60.5,88.8333 60.8333,88.5 61.5,88.5C 62.2907,86.6907 62.2907,84.6907 61.5,82.5 Z"/></g>
<g><path style="opacity:0.004" fill="#fefffe" d="M 179.5,88.5 C 180.833,89.1667 180.833,89.1667 179.5,88.5 Z"/></g>
<g><path style="opacity:1" fill="#17bf8d" d="M 31.5,85.5 C 33.0481,85.8212 33.7148,86.8212 33.5,88.5C 32.448,88.3505 31.448,88.5172 30.5,89C 31.2524,89.6708 31.5858,90.5041 31.5,91.5C 30.1779,91.33 29.0113,91.6634 28,92.5C 27.2828,91.9558 26.7828,91.2891 26.5,90.5C 27.422,88.1837 29.0887,86.517 31.5,85.5 Z"/></g>
<g><path style="opacity:1" fill="#061023" d="M 57.5,85.5 C 57.0882,87.9726 58.0882,89.3059 60.5,89.5C 61.4345,90.5676 61.7678,91.901 61.5,93.5C 61.6716,94.4916 61.3382,95.1583 60.5,95.5C 59.2719,96.3065 58.2719,97.3065 57.5,98.5C 57.5,96.8333 57.5,95.1667 57.5,93.5C 57.9382,93.5654 58.2716,93.3988 58.5,93C 58.0257,91.2714 57.0257,90.1047 55.5,89.5C 54.5987,88.7095 53.9321,87.7095 53.5,86.5C 53.8333,86.5 54.1667,86.5 54.5,86.5C 55.609,86.4431 56.609,86.1098 57.5,85.5 Z"/></g>
<g><path style="opacity:1" fill="#091021" d="M 128.5,92.5 C 128.5,94.1667 128.5,95.8333 128.5,97.5C 127.732,96.7375 127.232,95.7375 127,94.5C 126.768,95.7375 126.268,96.7375 125.5,97.5C 125.672,96.5084 125.338,95.8417 124.5,95.5C 124.5,94.1667 124.5,92.8333 124.5,91.5C 126.923,89.8628 129.59,89.3628 132.5,90C 131.24,91.113 130.073,91.2797 129,90.5C 128.536,91.0944 128.369,91.7611 128.5,92.5 Z"/></g>
<g><path style="opacity:1" fill="#0a0f22" d="M 150.5,89.5 C 150.611,90.1174 150.944,90.6174 151.5,91C 149.527,91.4955 147.527,91.6621 145.5,91.5C 144.957,91.44 144.624,91.1067 144.5,90.5C 146.396,89.5344 148.396,89.2011 150.5,89.5 Z"/></g>
<g><path style="opacity:0.004" fill="#fefffe" d="M 189.5,89.5 C 190.833,90.1667 190.833,90.1667 189.5,89.5 Z"/></g>
<g><path style="opacity:1" fill="#071121" d="M 55.5,89.5 C 57.0257,90.1047 58.0257,91.2714 58.5,93C 58.2716,93.3988 57.9382,93.5654 57.5,93.5C 56.8826,93.3893 56.3826,93.056 56,92.5C 55.7679,93.7375 55.2679,94.7375 54.5,95.5C 54.5,95.1667 54.5,94.8333 54.5,94.5C 54.366,92.7085 54.6993,91.0418 55.5,89.5 Z"/></g>
<g><path style="opacity:1" fill="#0b101b" d="M 118.5,88.5 C 119.833,88.5 121.167,88.5 122.5,88.5C 122.5,89.8333 122.5,91.1667 122.5,92.5C 121.167,92.5 119.833,92.5 118.5,92.5C 118.5,91.1667 118.5,89.8333 118.5,88.5 Z"/></g>
<g><path style="opacity:1" fill="#36ac8c" d="M 31.5,84.5 C 31.5,84.8333 31.5,85.1667 31.5,85.5C 29.0887,86.517 27.422,88.1837 26.5,90.5C 25.4739,91.853 24.1405,92.853 22.5,93.5C 23.8333,88.8333 26.8333,85.8333 31.5,84.5 Z"/></g>
<g><path style="opacity:0.663" fill="#050b1a" d="M 134.5,89.5 C 134.443,90.609 134.11,91.609 133.5,92.5C 131.833,92.5 130.167,92.5 128.5,92.5C 128.369,91.7611 128.536,91.0944 129,90.5C 130.073,91.2797 131.24,91.113 132.5,90C 129.59,89.3628 126.923,89.8628 124.5,91.5C 124.5,90.5 124.5,89.5 124.5,88.5C 127.939,88.2529 131.272,88.5863 134.5,89.5 Z"/></g>
<g><path style="opacity:0.839" fill="#060c18" d="M 150.5,89.5 C 148.396,89.2011 146.396,89.5344 144.5,90.5C 144.624,91.1067 144.957,91.44 145.5,91.5C 145.5,91.8333 145.5,92.1667 145.5,92.5C 145.5,93.8333 145.5,95.1667 145.5,96.5C 146.833,96.5 148.167,96.5 149.5,96.5C 149.5,98.5 149.5,100.5 149.5,102.5C 148.533,101.194 147.199,100.527 145.5,100.5C 146.791,98.4098 146.124,97.0764 143.5,96.5C 143.771,94.6203 143.104,93.287 141.5,92.5C 141.5,91.1667 141.5,89.8333 141.5,88.5C 144.713,88.19 147.713,88.5233 150.5,89.5 Z"/></g>
<g><path style="opacity:0.956" fill="#040917" d="M 150.5,89.5 C 152.017,89.5106 153.184,90.1772 154,91.5C 154.789,93.7116 154.622,95.7116 153.5,97.5C 153.196,95.2043 152.196,94.871 150.5,96.5C 150.616,93.0897 148.95,91.7564 145.5,92.5C 145.5,92.1667 145.5,91.8333 145.5,91.5C 147.527,91.6621 149.527,91.4955 151.5,91C 150.944,90.6174 150.611,90.1174 150.5,89.5 Z"/></g>
<g><path style="opacity:1" fill="#25b58c" d="M 26.5,90.5 C 26.7828,91.2891 27.2828,91.9558 28,92.5C 29.0113,91.6634 30.1779,91.33 31.5,91.5C 30.1363,93.1911 28.803,94.8577 27.5,96.5C 27.1667,96.5 26.8333,96.5 26.5,96.5C 26.506,93.4524 25.506,92.9524 23.5,95C 24.2524,95.6708 24.5858,96.5041 24.5,97.5C 23.8333,97.1667 23.1667,96.8333 22.5,96.5C 22.5,95.8333 22.5,95.1667 22.5,94.5C 22.5,94.1667 22.5,93.8333 22.5,93.5C 24.1405,92.853 25.4739,91.853 26.5,90.5 Z"/></g>
<g><path style="opacity:1" fill="#2cb791" d="M 45.5,92.5 C 46.5,92.5 47.5,92.5 48.5,92.5C 48.5,94.1667 48.5,95.8333 48.5,97.5C 48.1667,97.5 47.8333,97.5 47.5,97.5C 46.8333,96.1667 46.1667,94.8333 45.5,93.5C 45.5,93.1667 45.5,92.8333 45.5,92.5 Z"/></g>
<g><path style="opacity:1" fill="#1abc90" d="M 51.5,91.5 C 51.9754,94.3126 50.9754,96.3126 48.5,97.5C 48.5,95.8333 48.5,94.1667 48.5,92.5C 47.5,92.5 46.5,92.5 45.5,92.5C 43.9219,90.6824 44.4219,89.6824 47,89.5C 48.6067,90.0735 50.1067,90.7402 51.5,91.5 Z"/></g>
<g><path style="opacity:0.869" fill="#060e1a" d="M 134.5,89.5 C 136.833,89.8333 138.167,91.1667 138.5,93.5C 137.635,93.5639 136.635,93.8973 135.5,94.5C 134.5,94.1667 133.833,93.5 133.5,92.5C 134.11,91.609 134.443,90.609 134.5,89.5 Z"/></g>
<g><path style="opacity:0.758" fill="#030a1b" d="M 141.5,92.5 C 143.104,93.287 143.771,94.6203 143.5,96.5C 143.611,98.5239 142.945,100.524 141.5,102.5C 141.5,99.1667 141.5,95.8333 141.5,92.5 Z"/></g>
<g><path style="opacity:1" fill="#25b48d" d="M 40.5,92.5 C 41.4345,93.5676 41.7678,94.901 41.5,96.5C 40.6618,96.1583 40.3284,95.4916 40.5,94.5C 39.2918,93.218 37.9584,93.218 36.5,94.5C 36.8627,95.1835 37.1961,95.8501 37.5,96.5C 35.8235,95.8166 35.1568,94.4832 35.5,92.5C 37.1667,92.5 38.8333,92.5 40.5,92.5 Z"/></g>
<g><path style="opacity:1" fill="#080e23" d="M 57.5,93.5 C 57.5,95.1667 57.5,96.8333 57.5,98.5C 57.5654,98.9382 57.3988,99.2716 57,99.5C 56.6232,98.0577 55.7899,97.0577 54.5,96.5C 54.5,96.1667 54.5,95.8333 54.5,95.5C 55.2679,94.7375 55.7679,93.7375 56,92.5C 56.3826,93.056 56.8826,93.3893 57.5,93.5 Z"/></g>
<g><path style="opacity:0.999" fill="#070b19" d="M 87.5,95.5 C 86.2022,94.8843 85.2022,94.8843 84.5,95.5C 83.209,95.2627 82.209,95.596 81.5,96.5C 81.5,97.1667 81.1667,97.5 80.5,97.5C 80.1667,97.5 79.8333,97.5 79.5,97.5C 79.5,96.8333 79.5,96.1667 79.5,95.5C 80.1667,95.5 80.5,95.1667 80.5,94.5C 83.1363,91.7397 85.4697,92.073 87.5,95.5 Z"/></g>
<g><path style="opacity:0.504" fill="#010916" d="M 112.5,92.5 C 113.166,93.9122 113.499,95.2455 113.5,96.5C 113.5,98.1667 113.5,99.8333 113.5,101.5C 113.167,101.5 112.833,101.5 112.5,101.5C 113.244,98.0504 111.91,96.3838 108.5,96.5C 110.076,95.8571 111.41,94.8571 112.5,93.5C 112.5,93.1667 112.5,92.8333 112.5,92.5 Z"/></g>
<g><path style="opacity:0.871" fill="#060a18" d="M 76.5,93.5 C 75.7375,94.2679 74.7375,94.7679 73.5,95C 74.4158,95.2784 75.0825,95.7784 75.5,96.5C 73.0882,96.6941 72.0882,98.0274 72.5,100.5C 72.1667,100.5 71.8333,100.5 71.5,100.5C 71.5,98.8333 71.5,97.1667 71.5,95.5C 70.5,95.5 69.5,95.5 68.5,95.5C 68.4701,94.5028 68.9701,93.8361 70,93.5C 72.3252,93.7282 74.4919,93.7282 76.5,93.5 Z"/></g>
<g><path style="opacity:0.978" fill="#030818" d="M 76.5,93.5 C 77.9587,93.4326 79.2921,93.7659 80.5,94.5C 80.5,95.1667 80.1667,95.5 79.5,95.5C 78.8826,95.3893 78.3826,95.056 78,94.5C 77.7679,95.7375 77.2679,96.7375 76.5,97.5C 75.8333,97.5 75.5,97.1667 75.5,96.5C 75.0825,95.7784 74.4158,95.2784 73.5,95C 74.7375,94.7679 75.7375,94.2679 76.5,93.5 Z"/></g>
<g><path style="opacity:1" fill="#060a1a" d="M 99.5,94.5 C 98.2905,94.9321 97.2905,95.5987 96.5,96.5C 95.5,96.5 94.5,96.5 93.5,96.5C 93.5,95.1667 92.8333,94.5 91.5,94.5C 94.1667,91.8333 96.8333,91.8333 99.5,94.5 Z"/></g>
<g><path style="opacity:0.969" fill="#040b19" d="M 99.5,94.5 C 100.833,94.5 101.5,95.1667 101.5,96.5C 100.778,97.5511 99.7777,98.2178 98.5,98.5C 98.1667,97.5 97.5,96.8333 96.5,96.5C 97.2905,95.5987 98.2905,94.9321 99.5,94.5 Z"/></g>
<g><path style="opacity:0.999" fill="#050b19" d="M 112.5,93.5 C 111.41,94.8571 110.076,95.8571 108.5,96.5C 108.5,97.1667 108.167,97.5 107.5,97.5C 107.631,96.7611 107.464,96.0944 107,95.5C 106.184,96.8228 105.017,97.4894 103.5,97.5C 105.152,93.1743 108.152,91.841 112.5,93.5 Z"/></g>
<g><path style="opacity:1" fill="#060e1e" d="M 113.5,88.5 C 114.928,91.3033 115.595,94.3033 115.5,97.5C 114.833,97.1667 114.167,96.8333 113.5,96.5C 113.499,95.2455 113.166,93.9122 112.5,92.5C 112.232,90.901 112.566,89.5676 113.5,88.5 Z"/></g>
<g><path style="opacity:0.999" fill="#070e21" d="M 128.5,97.5 C 128.216,99.4147 128.549,101.081 129.5,102.5C 129.473,104.199 128.806,105.533 127.5,106.5C 127.167,106.5 126.833,106.5 126.5,106.5C 125.701,103.57 125.368,100.57 125.5,97.5C 126.268,96.7375 126.768,95.7375 127,94.5C 127.232,95.7375 127.732,96.7375 128.5,97.5 Z"/></g>
<g><path style="opacity:0.004" fill="#fefffe" d="M 168.5,94.5 C 169.833,95.1667 169.833,95.1667 168.5,94.5 Z"/></g>
<g><path style="opacity:0.912" fill="#070d21" d="M 68.5,95.5 C 69.5,95.5 70.5,95.5 71.5,95.5C 71.5,97.1667 71.5,98.8333 71.5,100.5C 70.7784,100.918 70.2784,101.584 70,102.5C 69.6174,101.944 69.1174,101.611 68.5,101.5C 68.5,99.5 68.5,97.5 68.5,95.5 Z"/></g>
<g><path style="opacity:0.945" fill="#030c21" d="M 79.5,95.5 C 79.5,96.1667 79.5,96.8333 79.5,97.5C 80.0443,101.64 79.0443,102.307 76.5,99.5C 76.5,98.8333 76.5,98.1667 76.5,97.5C 77.2679,96.7375 77.7679,95.7375 78,94.5C 78.3826,95.056 78.8826,95.3893 79.5,95.5 Z"/></g>
<g><path style="opacity:0.951" fill="#060c1c" d="M 87.5,95.5 C 87.5,97.8333 87.5,100.167 87.5,102.5C 86.8826,102.611 86.3826,102.944 86,103.5C 85.6049,100.793 85.1049,98.1267 84.5,95.5C 85.2022,94.8843 86.2022,94.8843 87.5,95.5 Z"/></g>
<g><path style="opacity:0.965" fill="#040a1c" d="M 91.5,94.5 C 92.8333,94.5 93.5,95.1667 93.5,96.5C 93.5,97.1667 93.5,97.8333 93.5,98.5C 93.5,99.1667 93.5,99.8333 93.5,100.5C 94.195,102.85 95.5283,103.517 97.5,102.5C 97.2627,103.791 97.596,104.791 98.5,105.5C 90.7621,106.911 87.9288,103.578 90,95.5C 90.3826,94.944 90.8826,94.6107 91.5,94.5 Z"/></g>
<g><path style="opacity:1" fill="#0c131f" d="M 122.5,96.5 C 121.778,96.9175 121.278,97.5842 121,98.5C 120.667,97.8333 120.333,97.1667 120,96.5C 119.502,99.8168 119.335,103.15 119.5,106.5C 117.939,102.246 117.606,97.9123 118.5,93.5C 119.833,93.5 121.167,93.5 122.5,93.5C 122.5,94.5 122.5,95.5 122.5,96.5 Z"/></g>
<g><path style="opacity:1" fill="#1abd8f" d="M 26.5,96.5 C 26.8016,99.0593 26.4682,101.393 25.5,103.5C 25.4828,101.435 25.1495,99.4352 24.5,97.5C 24.5858,96.5041 24.2524,95.6708 23.5,95C 25.506,92.9524 26.506,93.4524 26.5,96.5 Z"/></g>
<g><path style="opacity:1" fill="#3eb495" d="M 40.5,92.5 C 38.8333,92.5 37.1667,92.5 35.5,92.5C 35.1568,94.4832 35.8235,95.8166 37.5,96.5C 35.1667,97.1667 32.8333,97.8333 30.5,98.5C 30.1667,98.5 29.8333,98.5 29.5,98.5C 30.5521,96.744 32.2188,96.0773 34.5,96.5C 34.5,94.8333 34.5,93.1667 34.5,91.5C 36.7354,91.2053 38.7354,91.5386 40.5,92.5 Z"/></g>
<g><path style="opacity:0.48" fill="#070e1c" d="M 113.5,88.5 C 114.5,88.5 115.5,88.5 116.5,88.5C 116.5,93.1667 116.5,97.8333 116.5,102.5C 116.167,102.5 115.833,102.5 115.5,102.5C 115.5,100.833 115.5,99.1667 115.5,97.5C 115.595,94.3033 114.928,91.3033 113.5,88.5 Z"/></g>
<g><path style="opacity:0.978" fill="#091021" d="M 122.5,96.5 C 122.5,99.8333 122.5,103.167 122.5,106.5C 121.5,106.5 120.5,106.5 119.5,106.5C 119.335,103.15 119.502,99.8168 120,96.5C 120.333,97.1667 120.667,97.8333 121,98.5C 121.278,97.5842 121.778,96.9175 122.5,96.5 Z"/></g>
<g><path style="opacity:1" fill="#18bc8f" d="M 40.5,94.5 C 39.2632,95.9649 38.2632,97.6316 37.5,99.5C 37.5,99.8333 37.5,100.167 37.5,100.5C 37.5,101.167 37.1667,101.5 36.5,101.5C 36.5299,100.503 36.0299,99.8361 35,99.5C 33.9895,99.8919 33.4895,100.559 33.5,101.5C 31.7869,101.121 30.7869,100.121 30.5,98.5C 32.8333,97.8333 35.1667,97.1667 37.5,96.5C 37.1961,95.8501 36.8627,95.1835 36.5,94.5C 37.9584,93.218 39.2918,93.218 40.5,94.5 Z"/></g>
<g><path style="opacity:1" fill="#32a38a" d="M 51.5,91.5 C 52.3382,91.8417 52.6716,92.5084 52.5,93.5C 52.5,94.1667 52.5,94.8333 52.5,95.5C 52.5,95.8333 52.5,96.1667 52.5,96.5C 52.5,96.8333 52.5,97.1667 52.5,97.5C 52.1667,97.5 51.8333,97.5 51.5,97.5C 50.6851,98.4293 49.8518,99.4293 49,100.5C 48.6174,99.944 48.1174,99.6107 47.5,99.5C 47.5,98.8333 47.5,98.1667 47.5,97.5C 47.8333,97.5 48.1667,97.5 48.5,97.5C 50.9754,96.3126 51.9754,94.3126 51.5,91.5 Z"/></g>
<g><path style="opacity:0.959" fill="#05091d" d="M 143.5,96.5 C 146.124,97.0764 146.791,98.4098 145.5,100.5C 145.5,101.167 145.5,101.833 145.5,102.5C 144.069,102.881 143.236,103.881 143,105.5C 142.617,104.944 142.117,104.611 141.5,104.5C 141.5,103.833 141.5,103.167 141.5,102.5C 142.945,100.524 143.611,98.5239 143.5,96.5 Z"/></g>
<g><path style="opacity:0.004" fill="#fefffe" d="M 171.5,97.5 C 172.833,98.1667 172.833,98.1667 171.5,97.5 Z"/></g>
<g><path style="opacity:1" fill="#17c292" d="M 40.5,94.5 C 40.3284,95.4916 40.6618,96.1583 41.5,96.5C 41.5,96.8333 41.5,97.1667 41.5,97.5C 40.713,99.1042 39.3797,99.7709 37.5,99.5C 38.2632,97.6316 39.2632,95.9649 40.5,94.5 Z"/></g>
<g><path style="opacity:0.98" fill="#0e3439" d="M 52.5,93.5 C 53.1667,93.8333 53.8333,94.1667 54.5,94.5C 54.5,94.8333 54.5,95.1667 54.5,95.5C 54.5,95.8333 54.5,96.1667 54.5,96.5C 53.8902,97.391 53.5569,98.391 53.5,99.5C 52.1667,100.167 50.8333,100.833 49.5,101.5C 48.8333,101.5 48.5,101.833 48.5,102.5C 47.8333,102.167 47.1667,101.833 46.5,101.5C 46.8333,100.833 47.1667,100.167 47.5,99.5C 48.1174,99.6107 48.6174,99.944 49,100.5C 49.8518,99.4293 50.6851,98.4293 51.5,97.5C 51.8333,98.8333 52.1667,98.8333 52.5,97.5C 52.5,97.1667 52.5,96.8333 52.5,96.5C 53.8333,96.1667 53.8333,95.8333 52.5,95.5C 52.5,94.8333 52.5,94.1667 52.5,93.5 Z"/></g>
<g><path style="opacity:1" fill="#081020" d="M 107.5,97.5 C 106.333,99.0414 105,100.375 103.5,101.5C 103.5,100.167 103.5,98.8333 103.5,97.5C 105.017,97.4894 106.184,96.8228 107,95.5C 107.464,96.0944 107.631,96.7611 107.5,97.5 Z"/></g>
<g><path style="opacity:0.745" fill="#070e1c" d="M 138.5,93.5 C 139.156,94.6216 139.489,95.9549 139.5,97.5C 139.639,99.8825 138.972,101.883 137.5,103.5C 137.946,100.99 137.28,98.9899 135.5,97.5C 135.5,96.5 135.5,95.5 135.5,94.5C 136.635,93.8973 137.635,93.5639 138.5,93.5 Z"/></g>
<g><path style="opacity:0.984" fill="#03091b" d="M 153.5,97.5 C 153.672,98.4916 153.338,99.1583 152.5,99.5C 151.143,100.59 150.143,101.924 149.5,103.5C 149.5,103.167 149.5,102.833 149.5,102.5C 149.5,100.5 149.5,98.5 149.5,96.5C 149.833,96.5 150.167,96.5 150.5,96.5C 152.196,94.871 153.196,95.2043 153.5,97.5 Z"/></g>
<g><path style="opacity:1" fill="#34bc97" d="M 29.5,98.5 C 29.8333,98.5 30.1667,98.5 30.5,98.5C 30.7869,100.121 31.7869,101.121 33.5,101.5C 33.4895,100.559 33.9895,99.8919 35,99.5C 36.0299,99.8361 36.5299,100.503 36.5,101.5C 36.5,103.167 36.5,104.833 36.5,106.5C 36.5,106.833 36.5,107.167 36.5,107.5C 35.1447,105 32.9781,103.333 30,102.5C 29.51,101.207 29.3433,99.8734 29.5,98.5 Z"/></g>
<g><path style="opacity:1" fill="#18bc8e" d="M 41.5,97.5 C 42.7095,97.9321 43.7095,98.5987 44.5,99.5C 43.1805,100.942 41.5138,101.608 39.5,101.5C 39.1583,100.662 38.4916,100.328 37.5,100.5C 37.5,100.167 37.5,99.8333 37.5,99.5C 39.3797,99.7709 40.713,99.1042 41.5,97.5 Z"/></g>
<g><path style="opacity:1" fill="#040e1e" d="M 60.5,95.5 C 58.6625,100.665 55.6625,104.999 51.5,108.5C 51.5,107.167 51.5,105.833 51.5,104.5C 52.1174,104.611 52.6174,104.944 53,105.5C 52.744,103.398 52.9107,101.398 53.5,99.5C 53.5569,98.391 53.8902,97.391 54.5,96.5C 55.7899,97.0577 56.6232,98.0577 57,99.5C 57.3988,99.2716 57.5654,98.9382 57.5,98.5C 58.2719,97.3065 59.2719,96.3065 60.5,95.5 Z"/></g>
<g><path style="opacity:0.976" fill="#030814" d="M 81.5,96.5 C 82.209,95.596 83.209,95.2627 84.5,95.5C 85.1049,98.1267 85.6049,100.793 86,103.5C 86.3826,102.944 86.8826,102.611 87.5,102.5C 87.5,103.833 87.5,105.167 87.5,106.5C 86.5,106.5 85.5,106.5 84.5,106.5C 84.6641,103.813 84.4974,101.146 84,98.5C 83.5831,97.244 82.7498,96.5774 81.5,96.5 Z"/></g>
<g><path style="opacity:1" fill="#060f1a" d="M 101.5,96.5 C 102.434,97.5676 102.768,98.901 102.5,100.5C 99.5,100.5 96.5,100.5 93.5,100.5C 93.5,99.8333 93.5,99.1667 93.5,98.5C 95.1667,98.5 96.8333,98.5 98.5,98.5C 99.7777,98.2178 100.778,97.5511 101.5,96.5 Z"/></g>
<g><path style="opacity:1" fill="#070e23" d="M 113.5,96.5 C 114.167,96.8333 114.833,97.1667 115.5,97.5C 115.5,99.1667 115.5,100.833 115.5,102.5C 114.508,102.672 113.842,102.338 113.5,101.5C 113.5,99.8333 113.5,98.1667 113.5,96.5 Z"/></g>
<g><path style="opacity:0.242" fill="#08121b" d="M 124.5,95.5 C 125.338,95.8417 125.672,96.5084 125.5,97.5C 125.368,100.57 125.701,103.57 126.5,106.5C 124.586,103.316 123.92,99.649 124.5,95.5 Z"/></g>
<g><path style="opacity:1" fill="#4ba990" d="M 41.5,97.5 C 41.5,97.1667 41.5,96.8333 41.5,96.5C 42.8333,96.5 44.1667,96.5 45.5,96.5C 45.2155,98.4147 45.5489,100.081 46.5,101.5C 45.713,103.104 44.3797,103.771 42.5,103.5C 43.8062,102.533 44.4729,101.199 44.5,99.5C 43.7095,98.5987 42.7095,97.9321 41.5,97.5 Z"/></g>
<g><path style="opacity:0.693" fill="#090e1b" d="M 71.5,100.5 C 71.8333,100.5 72.1667,100.5 72.5,100.5C 72.5,102.5 72.5,104.5 72.5,106.5C 71.1667,106.5 69.8333,106.5 68.5,106.5C 68.5,104.833 68.5,103.167 68.5,101.5C 69.1174,101.611 69.6174,101.944 70,102.5C 70.2784,101.584 70.7784,100.918 71.5,100.5 Z"/></g>
<g><path style="opacity:0.004" fill="#fefffe" d="M 74.5,100.5 C 75.8333,101.167 75.8333,101.167 74.5,100.5 Z"/></g>
<g><path style="opacity:0.962" fill="#070e1e" d="M 135.5,97.5 C 137.28,98.9899 137.946,100.99 137.5,103.5C 136.71,104.401 135.71,105.068 134.5,105.5C 133.89,104.609 133.557,103.609 133.5,102.5C 134.942,101.18 135.608,99.5138 135.5,97.5 Z"/></g>
<g><path style="opacity:1" fill="#29ba92" d="M 44.5,99.5 C 44.4729,101.199 43.8062,102.533 42.5,103.5C 42.1667,103.5 41.8333,103.5 41.5,103.5C 40.8333,104.5 40.1667,105.5 39.5,106.5C 39.5,104.833 39.5,103.167 39.5,101.5C 41.5138,101.608 43.1805,100.942 44.5,99.5 Z"/></g>
<g><path style="opacity:0.999" fill="#031424" d="M 53.5,99.5 C 52.9107,101.398 52.744,103.398 53,105.5C 52.6174,104.944 52.1174,104.611 51.5,104.5C 50.609,103.89 49.609,103.557 48.5,103.5C 48.5,103.167 48.5,102.833 48.5,102.5C 49.1667,102.5 49.5,102.167 49.5,101.5C 50.8333,100.833 52.1667,100.167 53.5,99.5 Z"/></g>
<g><path style="opacity:0.814" fill="#070e19" d="M 98.5,105.5 C 97.596,104.791 97.2627,103.791 97.5,102.5C 99.2296,101.024 100.563,101.358 101.5,103.5C 100.995,104.919 99.9953,105.585 98.5,105.5 Z"/></g>
<g><path style="opacity:0.916" fill="#040b19" d="M 107.5,97.5 C 107.366,99.2915 107.699,100.958 108.5,102.5C 108.737,103.791 108.404,104.791 107.5,105.5C 105.167,105.167 103.833,103.833 103.5,101.5C 105,100.375 106.333,99.0414 107.5,97.5 Z"/></g>
<g><path style="opacity:0.8" fill="#070a1c" d="M 152.5,99.5 C 153.441,101.466 154.441,103.466 155.5,105.5C 152.789,106.989 150.789,106.322 149.5,103.5C 150.143,101.924 151.143,100.59 152.5,99.5 Z"/></g>
<g><path style="opacity:1" fill="#2bb08a" d="M 22.5,94.5 C 22.5,95.1667 22.5,95.8333 22.5,96.5C 21.9791,99.6363 22.9791,101.97 25.5,103.5C 26.4682,101.393 26.8016,99.0593 26.5,96.5C 26.8333,96.5 27.1667,96.5 27.5,96.5C 27.0562,101.169 28.3895,105.169 31.5,108.5C 30.391,108.443 29.391,108.11 28.5,107.5C 25.9699,103.657 24.6366,104.323 24.5,109.5C 23.4415,108.4 22.6082,107.066 22,105.5C 21.1901,101.642 21.3567,97.9758 22.5,94.5 Z"/></g>
<g><path style="opacity:1" fill="#17bf8d" d="M 22.5,96.5 C 23.1667,96.8333 23.8333,97.1667 24.5,97.5C 25.1495,99.4352 25.4828,101.435 25.5,103.5C 22.9791,101.97 21.9791,99.6363 22.5,96.5 Z"/></g>
<g><path style="opacity:1" fill="#15bf90" d="M 37.5,100.5 C 38.4916,100.328 39.1583,100.662 39.5,101.5C 39.5,103.167 39.5,104.833 39.5,106.5C 38.5,106.5 37.5,106.5 36.5,106.5C 36.5,104.833 36.5,103.167 36.5,101.5C 37.1667,101.5 37.5,101.167 37.5,100.5 Z"/></g>
<g><path style="opacity:0.953" fill="#0a111e" d="M 112.5,101.5 C 112.833,101.5 113.167,101.5 113.5,101.5C 113.842,102.338 114.508,102.672 115.5,102.5C 115.833,102.5 116.167,102.5 116.5,102.5C 117.434,103.568 117.768,104.901 117.5,106.5C 115.486,106.608 113.82,105.942 112.5,104.5C 112.167,103.833 111.833,103.167 111.5,102.5C 111.5,101.833 111.833,101.5 112.5,101.5 Z"/></g>
<g><path style="opacity:0.812" fill="#070a1a" d="M 145.5,102.5 C 145.5,103.833 145.5,105.167 145.5,106.5C 143.517,106.843 142.183,106.176 141.5,104.5C 142.117,104.611 142.617,104.944 143,105.5C 143.236,103.881 144.069,102.881 145.5,102.5 Z"/></g>
<g><path style="opacity:0.996" fill="#061123" d="M 48.5,103.5 C 49.609,103.557 50.609,103.89 51.5,104.5C 51.5,105.833 51.5,107.167 51.5,108.5C 51.5,109.167 51.1667,109.5 50.5,109.5C 49.7784,109.082 49.2784,108.416 49,107.5C 48.6174,108.056 48.1174,108.389 47.5,108.5C 46.7611,108.631 46.0944,108.464 45.5,108C 46.8228,107.184 47.4894,106.017 47.5,104.5C 47.5,103.833 47.8333,103.5 48.5,103.5 Z"/></g>
<g><path style="opacity:0.871" fill="#060c19" d="M 108.5,102.5 C 109.5,102.5 110.5,102.5 111.5,102.5C 111.833,103.167 112.167,103.833 112.5,104.5C 111.121,106.597 109.455,106.93 107.5,105.5C 108.404,104.791 108.737,103.791 108.5,102.5 Z"/></g>
<g><path style="opacity:0.004" fill="#fefffe" d="M 179.5,103.5 C 180.833,104.167 180.833,104.167 179.5,103.5 Z"/></g>
<g><path style="opacity:0.992" fill="#050c19" d="M 79.5,97.5 C 79.8333,97.5 80.1667,97.5 80.5,97.5C 80.5,100.5 80.5,103.5 80.5,106.5C 79.1667,106.5 77.8333,106.5 76.5,106.5C 76.5,104.167 76.5,101.833 76.5,99.5C 79.0443,102.307 80.0443,101.64 79.5,97.5 Z"/></g>
<g><path style="opacity:1" fill="#060e18" d="M 129.5,102.5 C 130.833,102.5 132.167,102.5 133.5,102.5C 133.557,103.609 133.89,104.609 134.5,105.5C 132.236,106.219 129.903,106.552 127.5,106.5C 128.806,105.533 129.473,104.199 129.5,102.5 Z"/></g>
<g><path style="opacity:1" fill="#15c090" d="M 28.5,107.5 C 27.1667,108.5 27.1667,109.5 28.5,110.5C 27.1667,110.167 25.8333,109.833 24.5,109.5C 24.6366,104.323 25.9699,103.657 28.5,107.5 Z"/></g>
<g><path style="opacity:1" fill="#37af99" d="M 41.5,103.5 C 42.0776,107.935 40.4109,109.268 36.5,107.5C 36.5,107.167 36.5,106.833 36.5,106.5C 37.5,106.5 38.5,106.5 39.5,106.5C 40.1667,105.5 40.8333,104.5 41.5,103.5 Z"/></g>
<g><path style="opacity:1" fill="#22b78d" d="M 28.5,107.5 C 29.391,108.11 30.391,108.443 31.5,108.5C 32.609,108.557 33.609,108.89 34.5,109.5C 34.5,109.833 34.5,110.167 34.5,110.5C 32.5,110.5 30.5,110.5 28.5,110.5C 27.1667,109.5 27.1667,108.5 28.5,107.5 Z"/></g>
<g><path style="opacity:1" fill="#020c1a" d="M 50.5,109.5 C 49.9744,111.23 48.9744,112.564 47.5,113.5C 47.5,112.167 47.5,110.833 47.5,109.5C 47.5,109.167 47.5,108.833 47.5,108.5C 48.1174,108.389 48.6174,108.056 49,107.5C 49.2784,108.416 49.7784,109.082 50.5,109.5 Z"/></g>
<g><path style="opacity:0.982" fill="#0a1927" d="M 47.5,104.5 C 47.4894,106.017 46.8228,107.184 45.5,108C 46.0944,108.464 46.7611,108.631 47.5,108.5C 47.5,108.833 47.5,109.167 47.5,109.5C 45.3364,109.721 43.6697,110.721 42.5,112.5C 41.1667,112.5 39.8333,112.5 38.5,112.5C 38.5,111.5 38.5,110.5 38.5,109.5C 39.4232,110.303 40.4232,110.47 41.5,110C 43.3702,107.96 45.3702,106.127 47.5,104.5 Z"/></g>
<g><path style="opacity:1" fill="#050f22" d="M 47.5,109.5 C 47.5,110.833 47.5,112.167 47.5,113.5C 44.4744,113.837 42.4744,115.504 41.5,118.5C 40.8333,118.5 40.1667,118.5 39.5,118.5C 40.1667,117.167 40.8333,115.833 41.5,114.5C 42.3382,114.158 42.6716,113.492 42.5,112.5C 43.6697,110.721 45.3364,109.721 47.5,109.5 Z"/></g>
<g><path style="opacity:0.004" fill="#fefffe" d="M 190.5,109.5 C 191.833,110.167 191.833,110.167 190.5,109.5 Z"/></g>
<g><path style="opacity:1" fill="#18be8d" d="M 28.5,110.5 C 30.5,110.5 32.5,110.5 34.5,110.5C 34.4431,111.609 34.1098,112.609 33.5,113.5C 31.8333,113.5 30.1667,113.5 28.5,113.5C 28.5,112.5 28.5,111.5 28.5,110.5 Z"/></g>
<g><path style="opacity:1" fill="#319e86" d="M 34.5,109.5 C 35.8333,109.5 37.1667,109.5 38.5,109.5C 38.5,110.5 38.5,111.5 38.5,112.5C 38.1667,112.5 37.8333,112.5 37.5,112.5C 37.1667,112.5 36.8333,112.5 36.5,112.5C 35.5,112.833 34.8333,113.5 34.5,114.5C 34.1667,114.5 33.8333,114.5 33.5,114.5C 33.5,114.167 33.5,113.833 33.5,113.5C 34.1098,112.609 34.4431,111.609 34.5,110.5C 34.5,110.167 34.5,109.833 34.5,109.5 Z"/></g>
<g><path style="opacity:0.004" fill="#fefffe" d="M 157.5,111.5 C 158.833,112.167 158.833,112.167 157.5,111.5 Z"/></g>
<g><path style="opacity:1" fill="#031324" d="M 37.5,112.5 C 37.8333,112.5 38.1667,112.5 38.5,112.5C 39.8333,112.5 41.1667,112.5 42.5,112.5C 42.6716,113.492 42.3382,114.158 41.5,114.5C 39.5648,115.15 37.5648,115.483 35.5,115.5C 35.8333,114.833 36.1667,114.167 36.5,113.5C 37.1667,113.5 37.5,113.167 37.5,112.5 Z"/></g>
<g><path style="opacity:1" fill="#31a688" d="M 24.5,109.5 C 25.8333,109.833 27.1667,110.167 28.5,110.5C 28.5,111.5 28.5,112.5 28.5,113.5C 30.1667,113.5 31.8333,113.5 33.5,113.5C 33.5,113.833 33.5,114.167 33.5,114.5C 32.8333,114.5 32.5,114.833 32.5,115.5C 31.8333,115.5 31.5,115.833 31.5,116.5C 31.1667,116.5 30.8333,116.5 30.5,116.5C 27.7997,114.766 25.7997,112.432 24.5,109.5 Z"/></g>
<g><path style="opacity:0.661" fill="#040c1a" d="M 65.5,114.5 C 65.5,114.833 65.5,115.167 65.5,115.5C 64.2976,116.405 62.9643,116.405 61.5,115.5C 61.1583,114.662 60.4916,114.328 59.5,114.5C 58.1153,113.698 58.282,113.031 60,112.5C 61.5325,113.695 63.0325,113.695 64.5,112.5C 64.7871,113.2 65.1205,113.867 65.5,114.5 Z"/></g>
<g><path style="opacity:1" fill="#090e26" d="M 41.5,114.5 C 40.8333,115.833 40.1667,117.167 39.5,118.5C 39.1583,119.338 38.4916,119.672 37.5,119.5C 36.0937,119.027 35.427,118.027 35.5,116.5C 35.5,116.167 35.5,115.833 35.5,115.5C 37.5648,115.483 39.5648,115.15 41.5,114.5 Z"/></g>
<g><path style="opacity:0.367" fill="#03081a" d="M 77.5,114.5 C 77.5858,115.496 77.2524,116.329 76.5,117C 74.82,116.229 73.1533,116.395 71.5,117.5C 71.631,116.761 71.4643,116.094 71,115.5C 70.0228,116.774 69.1894,116.774 68.5,115.5C 71.3915,114.597 74.3915,114.264 77.5,114.5 Z"/></g>
<g><path style="opacity:0.724" fill="#050a18" d="M 87.5,115.5 C 86.391,115.557 85.391,115.89 84.5,116.5C 84.1583,115.662 83.4916,115.328 82.5,115.5C 82.5,114.5 82.5,113.5 82.5,112.5C 84.6636,112.721 86.3303,113.721 87.5,115.5 Z"/></g>
<g><path style="opacity:0.497" fill="#060b1c" d="M 103.5,114.5 C 103.5,116.167 103.5,117.833 103.5,119.5C 102.833,119.167 102.167,118.833 101.5,118.5C 100.883,118.611 100.383,118.944 100,119.5C 99.51,118.207 99.3433,116.873 99.5,115.5C 99.4176,113.748 100.251,112.748 102,112.5C 102.965,112.93 103.465,113.596 103.5,114.5 Z"/></g>
<g><path style="opacity:0.352" fill="#060c1f" d="M 106.5,113.5 C 107.806,114.467 108.473,115.801 108.5,117.5C 108.289,119.424 107.623,119.757 106.5,118.5C 106.539,116.776 106.206,116.443 105.5,117.5C 104.833,118.167 104.167,118.833 103.5,119.5C 103.5,117.833 103.5,116.167 103.5,114.5C 104.391,113.89 105.391,113.557 106.5,113.5 Z"/></g>
<g><path style="opacity:0.847" fill="#060d1e" d="M 157.5,114.5 C 158.5,114.5 159.5,114.5 160.5,114.5C 161.492,114.328 162.158,114.662 162.5,115.5C 162.833,116.167 163.167,116.833 163.5,117.5C 162.596,118.209 162.263,119.209 162.5,120.5C 161.325,120.719 160.325,120.386 159.5,119.5C 160.506,118.604 160.506,117.938 159.5,117.5C 158.478,117.855 157.811,118.522 157.5,119.5C 156.761,119.631 156.094,119.464 155.5,119C 156.582,117.67 157.249,116.17 157.5,114.5 Z"/></g>
<g><path style="opacity:0.643" fill="#040b19" d="M 169.5,114.5 C 168.833,115.167 168.167,115.833 167.5,116.5C 167.167,116.5 166.833,116.5 166.5,116.5C 165.432,115.566 164.099,115.232 162.5,115.5C 162.158,114.662 161.492,114.328 160.5,114.5C 161.743,111.894 163.076,111.894 164.5,114.5C 166.128,113.465 167.795,113.465 169.5,114.5 Z"/></g>
<g><path style="opacity:0.004" fill="#fefffe" d="M 46.5,115.5 C 47.8333,116.167 47.8333,116.167 46.5,115.5 Z"/></g>
<g><path style="opacity:1" fill="#060c1e" d="M 92.5,114.5 C 91.746,116.505 90.5793,117.172 89,116.5C 88.5172,117.448 88.3505,118.448 88.5,119.5C 88.1667,119.5 87.8333,119.5 87.5,119.5C 86.2502,119.423 85.4169,118.756 85,117.5C 84.6667,117.833 84.3333,118.167 84,118.5C 83.3083,117.563 83.475,116.897 84.5,116.5C 85.391,115.89 86.391,115.557 87.5,115.5C 89.1172,114.962 90.7839,114.629 92.5,114.5 Z"/></g>
<g><path style="opacity:0.875" fill="#13192b" d="M 98.5,115.5 C 97.8288,116.847 97.8288,118.014 98.5,119C 97.9056,119.464 97.2389,119.631 96.5,119.5C 96.1667,119.5 95.8333,119.5 95.5,119.5C 96.8333,117.833 96.8333,116.167 95.5,114.5C 95.4346,114.062 95.6012,113.728 96,113.5C 96.9947,114.066 97.828,114.733 98.5,115.5 Z"/></g>
<g><path style="opacity:1" fill="#050a23" d="M 125.5,114.5 C 126.833,114.5 128.167,114.5 129.5,114.5C 129.443,115.609 129.11,116.609 128.5,117.5C 126.563,118.195 125.563,117.195 125.5,114.5 Z"/></g>
<g><path style="opacity:0.652" fill="#060c22" d="M 140.5,114.5 C 141.167,114.5 141.833,114.5 142.5,114.5C 142.5,115.167 142.833,115.5 143.5,115.5C 143.011,116.995 142.345,118.329 141.5,119.5C 141.167,119.5 140.833,119.5 140.5,119.5C 139.001,119.04 138.001,117.707 137.5,115.5C 138.791,115.737 139.791,115.404 140.5,114.5 Z"/></g>
<g><path style="opacity:0.439" fill="#040816" d="M 149.5,115.5 C 148.167,115.5 147.5,116.167 147.5,117.5C 147.167,117.5 146.833,117.5 146.5,117.5C 146.179,115.952 145.179,115.285 143.5,115.5C 142.833,115.5 142.5,115.167 142.5,114.5C 144.821,114.771 146.821,114.104 148.5,112.5C 149.386,113.325 149.719,114.325 149.5,115.5 Z"/></g>
<g><path style="opacity:0.871" fill="#0c191f" d="M 21.5,119.5 C 20.8333,120.167 20.1667,120.833 19.5,121.5C 17.2355,118.29 17.4022,114.956 20,111.5C 20.4962,113.035 20.3295,114.535 19.5,116C 19.9783,117.303 20.645,118.469 21.5,119.5 Z"/></g>
<g><path style="opacity:0.478" fill="#080e1d" d="M 59.5,114.5 C 60.4916,114.328 61.1583,114.662 61.5,115.5C 59.9689,116.925 60.3023,117.591 62.5,117.5C 62.5,118.5 62.5,119.5 62.5,120.5C 61.5,120.5 60.5,120.5 59.5,120.5C 59.5,118.5 59.5,116.5 59.5,114.5 Z"/></g>
<g><path style="opacity:0.701" fill="#070f24" d="M 61.5,115.5 C 62.9643,116.405 64.2976,116.405 65.5,115.5C 66.9538,117.263 66.6204,118.597 64.5,119.5C 63.8333,118.833 63.1667,118.167 62.5,117.5C 60.3023,117.591 59.9689,116.925 61.5,115.5 Z"/></g>
<g><path style="opacity:0.369" fill="#091021" d="M 77.5,114.5 C 78.5,114.5 79.5,114.5 80.5,114.5C 80.2785,116.664 79.2785,118.33 77.5,119.5C 75.3024,119.125 73.3024,118.458 71.5,117.5C 73.1533,116.395 74.82,116.229 76.5,117C 77.2524,116.329 77.5858,115.496 77.5,114.5 Z"/></g>
<g><path style="opacity:1" fill="#090f24" d="M 92.5,114.5 C 93.1667,114.5 93.5,114.833 93.5,115.5C 93.6495,116.552 93.4828,117.552 93,118.5C 92.6667,118.167 92.3333,117.833 92,117.5C 91.2917,118.381 90.4584,119.047 89.5,119.5C 89.1667,119.5 88.8333,119.5 88.5,119.5C 88.3505,118.448 88.5172,117.448 89,116.5C 90.5793,117.172 91.746,116.505 92.5,114.5 Z"/></g>
<g><path style="opacity:0.502" fill="#030919" d="M 111.5,115.5 C 110.833,116.167 110.167,116.833 109.5,117.5C 109.167,117.5 108.833,117.5 108.5,117.5C 108.473,115.801 107.806,114.467 106.5,113.5C 107.738,112.588 109.072,112.421 110.5,113C 110.167,113.333 109.833,113.667 109.5,114C 110.416,114.278 111.082,114.778 111.5,115.5 Z"/></g>
<g><path style="opacity:0.583" fill="#040a1b" d="M 118.5,115.5 C 118.735,114.903 119.235,114.57 120,114.5C 121.303,114.978 122.469,115.645 123.5,116.5C 123.733,118.062 124.4,119.395 125.5,120.5C 124.167,120.167 122.833,119.833 121.5,119.5C 120.488,118.128 119.488,116.795 118.5,115.5 Z"/></g>
<g><path style="opacity:1" fill="#050b1d" d="M 125.5,114.5 C 125.563,117.195 126.563,118.195 128.5,117.5C 129.105,119.481 130.105,119.815 131.5,118.5C 130.082,120.308 128.082,120.975 125.5,120.5C 124.4,119.395 123.733,118.062 123.5,116.5C 123.5,115.167 124.167,114.5 125.5,114.5 Z"/></g>
<g><path style="opacity:1" fill="#080f20" d="M 129.5,114.5 C 135.066,114.243 135.733,115.576 131.5,118.5C 130.105,119.815 129.105,119.481 128.5,117.5C 129.11,116.609 129.443,115.609 129.5,114.5 Z"/></g>
<g><path style="opacity:0.911" fill="#080d1e" d="M 140.5,114.5 C 139.791,115.404 138.791,115.737 137.5,115.5C 138.001,117.707 139.001,119.04 140.5,119.5C 139.811,120.774 138.977,120.774 138,119.5C 137.174,121.405 136.007,121.739 134.5,120.5C 135.348,118.591 135.682,116.591 135.5,114.5C 137.167,114.5 138.833,114.5 140.5,114.5 Z"/></g>
<g><path style="opacity:0.839" fill="#091020" d="M 143.5,115.5 C 145.179,115.285 146.179,115.952 146.5,117.5C 144.976,118.174 143.642,119.174 142.5,120.5C 141.893,120.376 141.56,120.043 141.5,119.5C 142.345,118.329 143.011,116.995 143.5,115.5 Z"/></g>
<g><path style="opacity:0.314" fill="#0b1225" d="M 152.5,114.5 C 153.058,115.79 154.058,116.623 155.5,117C 154.244,117.417 153.577,118.25 153.5,119.5C 151.703,118.27 149.703,117.604 147.5,117.5C 147.5,116.167 148.167,115.5 149.5,115.5C 150.391,114.89 151.391,114.557 152.5,114.5 Z"/></g>
<g><path style="opacity:0.753" fill="#050b1b" d="M 169.5,114.5 C 170.707,115.189 172.041,115.355 173.5,115C 173.043,115.414 172.709,115.914 172.5,116.5C 174.289,117.623 174.622,118.956 173.5,120.5C 171.094,120.645 168.761,120.645 166.5,120.5C 167.434,119.432 167.768,118.099 167.5,116.5C 168.167,115.833 168.833,115.167 169.5,114.5 Z"/></g>
<g><path style="opacity:1" fill="#061e29" d="M 36.5,112.5 C 36.5,112.833 36.5,113.167 36.5,113.5C 36.1667,114.167 35.8333,114.833 35.5,115.5C 35.5,115.833 35.5,116.167 35.5,116.5C 31.9297,117.256 31.2631,118.589 33.5,120.5C 32.5,120.5 31.5,120.5 30.5,120.5C 29.8333,119.833 29.1667,119.167 28.5,118.5C 29.1667,117.833 29.8333,117.167 30.5,116.5C 30.8333,116.5 31.1667,116.5 31.5,116.5C 32.1667,116.5 32.5,116.167 32.5,115.5C 32.5,114.833 32.8333,114.5 33.5,114.5C 33.8333,115.833 34.1667,115.833 34.5,114.5C 34.8333,113.5 35.5,112.833 36.5,112.5 Z"/></g>
<g><path style="opacity:1" fill="#020b19" d="M 47.5,113.5 C 47.1667,114.167 46.8333,114.833 46.5,115.5C 45.194,117.473 43.5273,119.139 41.5,120.5C 41.5,119.833 41.5,119.167 41.5,118.5C 42.4744,115.504 44.4744,113.837 47.5,113.5 Z"/></g>
<g><path style="opacity:0.937" fill="#03081a" d="M 68.5,118.5 C 69.209,117.596 70.209,117.263 71.5,117.5C 73.3024,118.458 75.3024,119.125 77.5,119.5C 75.197,120.231 72.8637,120.564 70.5,120.5C 69.8182,119.757 69.1515,119.091 68.5,118.5 Z"/></g>
<g><path style="opacity:0.18" fill="#010517" d="M 98.5,115.5 C 98.8333,115.5 99.1667,115.5 99.5,115.5C 99.3433,116.873 99.51,118.207 100,119.5C 100.383,118.944 100.883,118.611 101.5,118.5C 101.209,119.649 100.376,120.316 99,120.5C 97.9302,120.472 97.0968,120.139 96.5,119.5C 97.2389,119.631 97.9056,119.464 98.5,119C 97.8288,118.014 97.8288,116.847 98.5,115.5 Z"/></g>
<g><path style="opacity:0.622" fill="#080e1e" d="M 118.5,115.5 C 119.488,116.795 120.488,118.128 121.5,119.5C 119.409,120.803 117.743,120.303 116.5,118C 116.639,116.699 117.305,115.866 118.5,115.5 Z"/></g>
<g><path style="opacity:0.725" fill="#040b1b" d="M 152.5,114.5 C 154.167,115.833 155.833,115.833 157.5,114.5C 157.249,116.17 156.582,117.67 155.5,119C 156.094,119.464 156.761,119.631 157.5,119.5C 156.295,120.686 154.961,120.686 153.5,119.5C 153.577,118.25 154.244,117.417 155.5,117C 154.058,116.623 153.058,115.79 152.5,114.5 Z"/></g>
<g><path style="opacity:0.741" fill="#070f20" d="M 162.5,115.5 C 164.099,115.232 165.432,115.566 166.5,116.5C 166.5,117.833 166.5,119.167 166.5,120.5C 164.5,120.5 163.5,119.5 163.5,117.5C 163.167,116.833 162.833,116.167 162.5,115.5 Z"/></g>
<g><path style="opacity:0.976" fill="#020f23" d="M 35.5,116.5 C 35.427,118.027 36.0937,119.027 37.5,119.5C 36.4324,120.434 35.099,120.768 33.5,120.5C 31.2631,118.589 31.9297,117.256 35.5,116.5 Z"/></g>
<g><path style="opacity:0.999" fill="#021020" d="M 39.5,118.5 C 40.1667,118.5 40.8333,118.5 41.5,118.5C 41.5,119.167 41.5,119.833 41.5,120.5C 41.6716,121.492 41.3382,122.158 40.5,122.5C 38.6907,121.709 36.6907,121.709 34.5,122.5C 34.1667,121.833 33.8333,121.167 33.5,120.5C 35.099,120.768 36.4324,120.434 37.5,119.5C 38.4916,119.672 39.1583,119.338 39.5,118.5 Z"/></g>
<g><path style="opacity:0.5" fill="#030819" d="M 82.5,115.5 C 83.4916,115.328 84.1583,115.662 84.5,116.5C 83.475,116.897 83.3083,117.563 84,118.5C 84.3333,118.167 84.6667,117.833 85,117.5C 85.4169,118.756 86.2502,119.423 87.5,119.5C 85.7354,120.461 83.7354,120.795 81.5,120.5C 81.6287,118.784 81.962,117.117 82.5,115.5 Z"/></g>
<g><path style="opacity:0.937" fill="#050c1f" d="M 95.5,114.5 C 96.8333,116.167 96.8333,117.833 95.5,119.5C 93.6164,119.937 91.6164,119.937 89.5,119.5C 90.4584,119.047 91.2917,118.381 92,117.5C 92.3333,117.833 92.6667,118.167 93,118.5C 93.4828,117.552 93.6495,116.552 93.5,115.5C 94.1667,115.167 94.8333,114.833 95.5,114.5 Z"/></g>
<g><path style="opacity:0.09" fill="#080d1c" d="M 111.5,115.5 C 112.629,116.47 113.629,117.636 114.5,119C 113.842,121.5 112.509,122 110.5,120.5C 109.89,119.609 109.557,118.609 109.5,117.5C 110.167,116.833 110.833,116.167 111.5,115.5 Z"/></g>
<g><path style="opacity:1" fill="#070f1c" d="M 146.5,117.5 C 146.833,117.5 147.167,117.5 147.5,117.5C 149.703,117.604 151.703,118.27 153.5,119.5C 151.453,119.806 149.286,120.139 147,120.5C 146.5,120.333 146,120.167 145.5,120C 146.252,119.329 146.586,118.496 146.5,117.5 Z"/></g>
<g><path style="opacity:0.227" fill="#050c1e" d="M 65.5,114.5 C 66.791,114.263 67.791,114.596 68.5,115.5C 69.1894,116.774 70.0228,116.774 71,115.5C 71.4643,116.094 71.631,116.761 71.5,117.5C 70.209,117.263 69.209,117.596 68.5,118.5C 67.4617,120.519 66.1284,120.853 64.5,119.5C 66.6204,118.597 66.9538,117.263 65.5,115.5C 65.5,115.167 65.5,114.833 65.5,114.5 Z"/></g>
<g><path style="opacity:0.227" fill="#000515" d="M 105.5,117.5 C 105.5,118.167 105.833,118.5 106.5,118.5C 107.623,119.757 108.289,119.424 108.5,117.5C 108.833,117.5 109.167,117.5 109.5,117.5C 109.557,118.609 109.89,119.609 110.5,120.5C 107.941,120.802 105.607,120.468 103.5,119.5C 104.167,118.833 104.833,118.167 105.5,117.5 Z"/></g>
<g><path style="opacity:0.997" fill="#060d1d" d="M 21.5,119.5 C 23.1667,119.5 24.8333,119.5 26.5,119.5C 26.5,120.5 26.5,121.5 26.5,122.5C 23.7852,124.076 21.4519,123.742 19.5,121.5C 20.1667,120.833 20.8333,120.167 21.5,119.5 Z"/></g>
<g><path style="opacity:1" fill="#07111b" d="M 28.5,118.5 C 29.1667,119.167 29.8333,119.833 30.5,120.5C 29.3285,121.345 27.9952,122.011 26.5,122.5C 26.5,121.5 26.5,120.5 26.5,119.5C 26.8417,118.662 27.5084,118.328 28.5,118.5 Z"/></g>
<g><path style="opacity:1" fill="#060d19" d="M 40.5,122.5 C 38.5,126.5 36.5,126.5 34.5,122.5C 36.6907,121.709 38.6907,121.709 40.5,122.5 Z"/></g>
<g><path style="opacity:0.004" fill="#fefffe" d="M 31.5,128.5 C 32.8333,129.167 32.8333,129.167 31.5,128.5 Z"/></g>
<g><path style="opacity:0.004" fill="#fefffe" d="M 144.5,128.5 C 145.833,129.167 145.833,129.167 144.5,128.5 Z"/></g>
<g><path style="opacity:0.004" fill="#fefffe" d="M 64.5,134.5 C 65.8333,135.167 65.8333,135.167 64.5,134.5 Z"/></g>
<g><path style="opacity:0.004" fill="#fefffe" d="M 10.5,136.5 C 11.8333,137.167 11.8333,137.167 10.5,136.5 Z"/></g>
<g><path style="opacity:0.004" fill="#fefffe" d="M 90.5,136.5 C 91.8333,137.167 91.8333,137.167 90.5,136.5 Z"/></g>
<g><path style="opacity:0.004" fill="#fefffe" d="M 92.5,137.5 C 93.8333,138.167 93.8333,138.167 92.5,137.5 Z"/></g>
<g><path style="opacity:0.004" fill="#fefffe" d="M 112.5,146.5 C 113.833,147.167 113.833,147.167 112.5,146.5 Z"/></g>
<g><path style="opacity:0.004" fill="#fefffe" d="M 116.5,148.5 C 117.833,149.167 117.833,149.167 116.5,148.5 Z"/></g>
<g><path style="opacity:0.004" fill="#fefffe" d="M 158.5,148.5 C 159.833,149.167 159.833,149.167 158.5,148.5 Z"/></g>
<g><path style="opacity:0.004" fill="#fefffe" d="M 85.5,150.5 C 86.8333,151.167 86.8333,151.167 85.5,150.5 Z"/></g>
<g><path style="opacity:0.004" fill="#fefffe" d="M 129.5,151.5 C 130.833,152.167 130.833,152.167 129.5,151.5 Z"/></g>
<g><path style="opacity:0.004" fill="#fefffe" d="M 165.5,152.5 C 166.833,153.167 166.833,153.167 165.5,152.5 Z"/></g>
<g><path style="opacity:0.004" fill="#fefffe" d="M 194.5,153.5 C 195.833,154.167 195.833,154.167 194.5,153.5 Z"/></g>
<g><path style="opacity:0.004" fill="#fefffe" d="M 180.5,154.5 C 181.833,155.167 181.833,155.167 180.5,154.5 Z"/></g>
<g><path style="opacity:0.004" fill="#fefffe" d="M 199.5,154.5 C 199.5,154.833 199.5,155.167 199.5,155.5C 198.83,155.019 198.83,154.685 199.5,154.5 Z"/></g>
<g><path style="opacity:0.004" fill="#fefffe" d="M 38.5,157.5 C 39.8333,158.167 39.8333,158.167 38.5,157.5 Z"/></g>
<g><path style="opacity:0.004" fill="#fefffe" d="M 72.5,157.5 C 73.8333,158.167 73.8333,158.167 72.5,157.5 Z"/></g>
<g><path style="opacity:0.004" fill="#fefffe" d="M 130.5,157.5 C 131.833,158.167 131.833,158.167 130.5,157.5 Z"/></g>
<g><path style="opacity:0.004" fill="#fefffe" d="M 25.5,160.5 C 26.8333,161.167 26.8333,161.167 25.5,160.5 Z"/></g>
<g><path style="opacity:0.004" fill="#fefffe" d="M 55.5,162.5 C 56.8333,163.167 56.8333,163.167 55.5,162.5 Z"/></g>
<g><path style="opacity:0.004" fill="#fefffe" d="M 25.5,172.5 C 26.8333,173.167 26.8333,173.167 25.5,172.5 Z"/></g>
<g><path style="opacity:0.004" fill="#fefffe" d="M 185.5,172.5 C 186.833,173.167 186.833,173.167 185.5,172.5 Z"/></g>
<g><path style="opacity:0.004" fill="#fefffe" d="M 88.5,173.5 C 89.8333,174.167 89.8333,174.167 88.5,173.5 Z"/></g>
<g><path style="opacity:0.004" fill="#fefffe" d="M 182.5,175.5 C 183.833,176.167 183.833,176.167 182.5,175.5 Z"/></g>
<g><path style="opacity:0.004" fill="#fefffe" d="M 186.5,175.5 C 187.833,176.167 187.833,176.167 186.5,175.5 Z"/></g>
<g><path style="opacity:0.004" fill="#fefffe" d="M 123.5,177.5 C 124.833,178.167 124.833,178.167 123.5,177.5 Z"/></g>
<g><path style="opacity:0.004" fill="#fefffe" d="M 145.5,180.5 C 146.833,181.167 146.833,181.167 145.5,180.5 Z"/></g>
<g><path style="opacity:0.004" fill="#fefffe" d="M 5.5,183.5 C 6.83333,184.167 6.83333,184.167 5.5,183.5 Z"/></g>
<g><path style="opacity:0.004" fill="#fefffe" d="M 171.5,187.5 C 172.833,188.167 172.833,188.167 171.5,187.5 Z"/></g>
<g><path style="opacity:0.004" fill="#fefffe" d="M 180.5,187.5 C 181.833,188.167 181.833,188.167 180.5,187.5 Z"/></g>
<g><path style="opacity:0.004" fill="#fefffe" d="M 5.5,190.5 C 6.83333,191.167 6.83333,191.167 5.5,190.5 Z"/></g>
<g><path style="opacity:0.004" fill="#fe00ff" d="M 27.5,193.5 C 28.8333,194.167 28.8333,194.167 27.5,193.5 Z"/></g>
<g><path style="opacity:0.004" fill="#fefffe" d="M 40.5,194.5 C 41.8333,195.167 41.8333,195.167 40.5,194.5 Z"/></g>
<g><path style="opacity:0.004" fill="#fefffe" d="M 102.5,194.5 C 103.833,195.167 103.833,195.167 102.5,194.5 Z"/></g>
</svg>
